<svg xmlns="http://www.w3.org/2000/svg" viewBox="0 0 100 100">
  <!-- Fondo -->
  <rect width="100" height="100" fill="#1a472a" rx="8"/>
  
  <!-- Cartas superpuestas -->
  <!-- Carta trasera 1 -->
  <rect x="10" y="20" width="35" height="50" rx="3" fill="#fff" opacity="0.9" transform="rotate(-15 27.5 45)"/>
  <rect x="12" y="22" width="31" height="46" rx="2" fill="#8B0000" transform="rotate(-15 27.5 45)"/>
  
  <!-- Carta trasera 2 -->
  <rect x="30" y="15" width="35" height="50" rx="3" fill="#fff" opacity="0.95" transform="rotate(5 47.5 40)"/>
  <rect x="32" y="17" width="31" height="46" rx="2" fill="#1a472a" transform="rotate(5 47.5 40)"/>
  
  <!-- Carta frontal (Oro) -->
  <rect x="45" y="25" width="35" height="50" rx="3" fill="#fff" transform="rotate(15 62.5 50)"/>
  <rect x="47" y="27" width="31" height="46" rx="2" fill="#f5f5f5" transform="rotate(15 62.5 50)"/>
  
  <!-- Moneda de oro en la carta frontal -->
  <g transform="rotate(15 62.5 50)">
    <circle cx="62.5" cy="50" r="8" fill="#FFD700" stroke="#DAA520" stroke-width="1"/>
    <circle cx="62.5" cy="50" r="6" fill="none" stroke="#DAA520" stroke-width="0.5"/>
    <text x="62.5" y="53" font-size="10" font-weight="bold" fill="#B8860B" text-anchor="middle">$</text>
  </g>
  
  <!-- Símbolo "J" (Jodete) -->
  <text x="50" y="92" font-size="28" font-weight="bold" fill="#FFD700" text-anchor="middle" stroke="#1a472a" stroke-width="1">J</text>
</svg>
